<svg width="20" height="20" fill="none" xmlns="http://www.w3.org/2000/svg"><path d="M4.688 10c0-.99.273-1.92.747-2.714V3.915H2.063A9.924 9.924 0 000 10c0 2.23.725 4.348 2.063 6.085h3.372v-3.371A5.28 5.28 0 014.688 10z" fill="#FBBD00"/><path d="M10 15.313l-2.344 2.343L10 20c2.23 0 4.348-.725 6.085-2.063v-3.368h-3.368a5.31 5.31 0 01-2.717.744z" fill="#0F9D58"/><path d="M5.435 12.714l-3.372 3.371c.265.344.554.674.866.986A9.935 9.935 0 009.999 20v-4.688a5.315 5.315 0 01-4.564-2.598z" fill="#31AA52"/><path d="M20 10c0-.608-.055-1.218-.164-1.812l-.088-.48H10v4.688h4.744a5.288 5.288 0 01-2.027 2.173l3.368 3.368c.344-.265.674-.554.986-.866A9.935 9.935 0 0020 10z" fill="#3C79E6"/><path d="M13.757 6.243l.414.415 3.314-3.315-.414-.414A9.935 9.935 0 0010 0L7.656 2.344 10 4.688a5.28 5.28 0 013.757 1.555z" fill="#CF2D48"/><path d="M10 4.688V0a9.935 9.935 0 00-7.071 2.929c-.312.312-.6.642-.866.986l3.372 3.371A5.315 5.315 0 0110 4.688z" fill="#EB4132"/></svg>