<svg width="280" height="225" fill="none" xmlns="http://www.w3.org/2000/svg"><path d="M22.628 192.341S-3.278 175.34.348 137.576c4.014-41.817 20.49-46.388 32.959-52.527C47.459 78.08 59.57 76.876 75.8 42.432 97.228-3.04 135.785.044 150.38.044c49.556 0 48.962 49.137 72.886 73.595 22.524 23.018 71.744 72.917 15.996 117.118-29.028 23.011-170.216 30.331-216.633 1.584z" fill="#B3FFD1"/><path d="M229.854 101.197c22.906 0 41.474-18.568 41.474-41.474 0-22.905-18.568-41.474-41.474-41.474-22.906 0-41.474 18.569-41.474 41.474 0 22.906 18.568 41.474 41.474 41.474z" fill="#32B768"/><path d="M223.86 76.57l-15.668-12.544c-1.638-1.318-2.156-3.664-1.059-5.454a4.127 4.127 0 016.116-1.082l14.244 11.403 18.334-22.508a4.134 4.134 0 015.812-.594 4.134 4.134 0 01.594 5.811L232.65 75.634a6.275 6.275 0 01-8.79.937z" fill="#fff"/><path d="M189.385 213.768h-129a5.505 5.505 0 01-5.507-5.507V105.333h140.014v102.928a5.505 5.505 0 01-5.507 5.507z" fill="#32B768"/><path d="M168.324 76.845H81.446l-26.568 28.488h140.014l-26.568-28.488z" fill="#0E7F3D"/><path d="M168.324 76.846H81.445V62.732a4.143 4.143 0 014.144-4.144h78.592a4.143 4.143 0 014.143 4.144v14.114z" fill="#32B768"/><path d="M79 159.155c3.534 0 6.399-3.949 6.399-8.821 0-4.871-2.865-8.82-6.398-8.82-3.534 0-6.399 3.949-6.399 8.82 0 4.872 2.865 8.821 6.399 8.821z" fill="#0E7F3D"/><path d="M79 190.576c-.99 0-1.79-.8-1.79-1.79v-34.093h3.573v34.101c0 .982-.8 1.782-1.783 1.782zm20.208 0c-.99 0-1.79-.8-1.79-1.79v-34.093h3.573v34.101c0 .982-.8 1.782-1.783 1.782z" fill="#0E7F3D"/><path d="M105.606 143.198v9.354a6.06 6.06 0 01-6.055 6.055h-.686a6.056 6.056 0 01-6.055-6.055v-9.354a1.142 1.142 0 011.135-1.142 1.15 1.15 0 011.142 1.142v7.084a1.39 1.39 0 001.387 1.386h.228a1.39 1.39 0 001.386-1.386v-7.084a1.15 1.15 0 011.143-1.142 1.14 1.14 0 011.135 1.142v7.13c0 .769.624 1.394 1.394 1.394h.198c.769 0 1.386-.625 1.386-1.394v-7.13a1.15 1.15 0 011.143-1.142c.54 0 .99.381 1.112.883 0 .076.007.168.007.259z" fill="#0E7F3D"/><path d="M228.11 219.221l-15.363 5.75-26.53-1.972-6.231-1.608-1.607-.411 6.71-3.412 36.181 1.394 6.71.251.13.008z" fill="#E06738"/><path d="M268.282 211.467l-22.508-1.295-17.138 3.595-7.374 5.203-.152.114-8.371 5.895-26.339-5.301-6.414 1.729-13.314 3.58-17.283-4.144-29.95 2.301.13-14.686-9.43-12.872h14.739c4.463-2.407 10.968-3.07 10.968-3.07l9.018 4.555 82.248.449 14.792-4.669 26.378 18.616z" fill="#FDF0B9"/><path d="M229.58 179.193h-88.974c-.792 4.86 0 18.685 0 18.685 0 7.769 19.919 14.061 44.491 14.061s44.49-6.3 44.49-14.061c.61-11.014-.007-18.685-.007-18.685z" fill="#EDB82C"/><path d="M228.476 176.931c4.219-.221 7.67 4.228 6.245 6.932-1.424 2.704-6.68 4.737-8.416 5.248-3.946 1.165-1.089 7.244-8.546 5.446-3.855-.929-4.982 1.676-7.122 3.77-2.133 2.095-7.831.633-13.17-1.675-5.34-2.308-9.971 4.189-15.127 3.564-5.157-.624-9.788-3.145-13.17-1.889-3.382 1.257-5.339 0-9.437-3.983-4.098-3.984-8.189 1.47-11.928 0-3.74-1.47-2.316-5.028-6.406-6.917-4.098-1.889-8.189-2.582-8.189-4.928 0-5.301 8.12-6.626 8.12-6.626l87.146 1.058z" fill="#E06738"/><path d="M229.58 170.876c0 16.3-19.918 19.85-44.491 19.85-24.572 0-44.49-3.55-44.49-19.85s19.918-29.516 44.49-29.516c24.573 0 44.491 13.216 44.491 29.516z" fill="#EDB82C"/><path d="M162.947 150.638c.762 0 1.379-.31 1.379-.693 0-.382-.617-.693-1.379-.693-.761 0-1.379.311-1.379.693 0 .383.618.693 1.379.693zm8.744 5.34c.762 0 1.379-.31 1.379-.693 0-.383-.617-.693-1.379-.693-.761 0-1.378.31-1.378.693 0 .383.617.693 1.378.693zm5.744-5.34c.761 0 1.378-.31 1.378-.693 0-.382-.617-.693-1.378-.693-.762 0-1.379.311-1.379.693 0 .383.617.693 1.379.693zm9.673-4.958c.762 0 1.379-.31 1.379-.693 0-.383-.617-.693-1.379-.693-.761 0-1.379.31-1.379.693 0 .383.618.693 1.379.693zm7.526 7.008c.761 0 1.378-.311 1.378-.694 0-.382-.617-.693-1.378-.693-.762 0-1.379.311-1.379.693 0 .383.617.694 1.379.694zm14.868 0c.761 0 1.379-.311 1.379-.694 0-.382-.618-.693-1.379-.693s-1.379.311-1.379.693c0 .383.618.694 1.379.694zm-52.968 9.635c.761 0 1.378-.311 1.378-.694 0-.382-.617-.693-1.378-.693-.762 0-1.379.311-1.379.693 0 .383.617.694 1.379.694zm16.345 6.497c.762 0 1.379-.31 1.379-.693 0-.383-.617-.693-1.379-.693-.761 0-1.378.31-1.378.693 0 .383.617.693 1.378.693zm12.843-9.178c.761 0 1.378-.31 1.378-.693 0-.383-.617-.693-1.378-.693-.762 0-1.379.31-1.379.693 0 .383.617.693 1.379.693zm8.912 7.098c.761 0 1.378-.31 1.378-.693 0-.383-.617-.693-1.378-.693-.762 0-1.379.31-1.379.693 0 .383.617.693 1.379.693zm13.733-2.787c.761 0 1.379-.311 1.379-.693 0-.383-.618-.694-1.379-.694-.762 0-1.379.311-1.379.694 0 .382.617.693 1.379.693z" fill="#fff"/><path d="M135.656 209.548l13.725-7.038 16.415 7.19s6.527-.731 9.544-1.013c3.016-.282 7.282-.716 9.003.213 1.729.929 4.593 3.017 6.756 2.91 2.163-.107 10.039-4.037 13.208-2.91 3.169 1.127 13.36.503 16.803 0l-17.092 5.957h-54.576l-13.786-5.309z" fill="#FDF0B9"/><path d="M268.282 211.468l-20.878 8.157-19.294-.403-.129-.008-6.711-.251 7.373-5.195 17.138-3.595 22.501 1.295z" fill="#E06738"/><path d="M221.674 205.534a.383.383 0 01-.122-.746c.091-.031 9.011-2.895 15.935-2.628a.377.377 0 01.365.396c-.007.213-.198.358-.396.366-6.794-.267-15.584 2.559-15.676 2.589-.03.023-.068.023-.106.023zm-75.697-1.432a.432.432 0 01-.191-.046c-6.589-3.717-13.383-3.9-13.451-3.9a.377.377 0 01-.374-.388c.008-.213.191-.35.389-.373.068 0 7.053.19 13.809 3.999a.378.378 0 01-.182.708zm-17.215 6.818c-.03 0-.053 0-.083-.008l-9.187-2.095a.383.383 0 01.168-.746l9.186 2.094a.385.385 0 01.29.458.397.397 0 01-.374.297z" fill="#000"/><path d="M30.39 41.769c-.397-1.561-3.383-2.24-7.39-1.912a1.83 1.83 0 01-1.827-1.09c-1.6-3.686-3.618-5.994-5.18-5.605-1.561.396-2.24 3.382-1.912 7.388a1.83 1.83 0 01-1.089 1.828c-3.687 1.6-5.995 3.618-5.606 5.18.396 1.561 3.382 2.24 7.388 1.912a1.83 1.83 0 011.829 1.089c1.599 3.687 3.617 5.994 5.179 5.606 1.561-.396 2.24-3.382 1.912-7.389a1.83 1.83 0 011.09-1.828c3.686-1.607 6.001-3.618 5.605-5.179z" fill="#32B768"/><path d="M279.981 140.835c.259-1.584-2.216-3.404-6.017-4.692a1.827 1.827 0 01-1.241-1.729c-.008-4.014-.93-6.939-2.522-7.205-1.584-.259-3.404 2.216-4.692 6.017a1.828 1.828 0 01-1.729 1.242c-4.014.007-6.939.929-7.205 2.521-.259 1.584 2.216 3.405 6.017 4.692a1.828 1.828 0 011.242 1.729c.007 4.014.929 6.939 2.521 7.206 1.584.259 3.405-2.217 4.692-6.018a1.827 1.827 0 011.729-1.241c4.022-.008 6.946-.93 7.205-2.522z" fill="#EDB82C"/><path d="M13.29 191.671a9.45 9.45 0 100-18.901 9.45 9.45 0 100 18.901z" fill="#32B768"/></svg>