<svg width="280" height="273" fill="none" xmlns="http://www.w3.org/2000/svg"><path d="M9.618 155.944S8.33 86.179 95.02 97.856c73.404 9.879 47.378 13.679 93.146 11.023 10.693-.616 52.509-15.127 69.371-2.709 21.19 15.602 42.076 69.828-11.05 125.905-62.577 66.046-198.916.599-198.916.599S7.5 207.667 9.618 155.944z" fill="#B3FFD1"/><path d="M142.281 272.524c58.297 0 105.556-12.141 105.556-27.118 0-14.977-47.259-27.117-105.556-27.117-58.296 0-105.555 12.14-105.555 27.117s47.259 27.118 105.555 27.118z" fill="#0E7F3D"/><path d="M142.281 264.495c63.807 0 115.533-12.141 115.533-27.118 0-14.976-51.726-27.117-115.533-27.117S26.748 222.401 26.748 237.377c0 14.977 51.726 27.118 115.533 27.118z" fill="#32B768"/><path d="M203.177 210.054c0 26.125-36.997 23.604-82.64 23.604s-82.64 2.512-82.64-23.604 36.997-47.297 82.64-47.297c45.634.009 82.64 21.181 82.64 47.297z" fill="#F0C7A9"/><mask id="a" style="mask-type:alpha" maskUnits="userSpaceOnUse" x="37" y="162" width="167" height="72"><path d="M203.177 210.054c0 26.125-36.997 23.604-82.64 23.604s-82.64 2.512-82.64-23.604 36.997-47.297 82.64-47.297c45.634.009 82.64 21.181 82.64 47.297z" fill="#FFC5BB"/></mask><g mask="url(#a)" fill="#E06738"><path d="M69.503 198.243h-1.028a3.453 3.453 0 01-3.451-3.451v-39.483a3.453 3.453 0 013.45-3.451h1.029a3.453 3.453 0 013.451 3.451v39.483a3.448 3.448 0 01-3.451 3.451zm22.781-5.991h-1.028a3.453 3.453 0 01-3.451-3.451v-39.482a3.454 3.454 0 013.451-3.452h1.028a3.454 3.454 0 013.451 3.452v39.482a3.453 3.453 0 01-3.45 3.451zm21.959-6.303h-1.028a3.453 3.453 0 01-3.451-3.451v-39.483a3.453 3.453 0 013.451-3.451h1.028a3.453 3.453 0 013.451 3.451v39.483a3.448 3.448 0 01-3.451 3.451zm22.236 0h-1.028a3.454 3.454 0 01-3.452-3.451v-39.483a3.454 3.454 0 013.452-3.451h1.028a3.453 3.453 0 013.451 3.451v39.483a3.442 3.442 0 01-3.451 3.451z"/></g><path d="M189.676 144.957c-25.938 0-46.966 7.43-46.966 16.594v71.562h34.86l.188 16.058c3.808.349 7.796.536 11.918.536 25.937 0 46.966-7.429 46.966-16.594v-71.562c0-9.164-21.029-16.594-46.966-16.594z" fill="#FDF0B9"/><path d="M178.029 177.591v22.406s2.522 3.808 6.33-4.569c3.809-8.369 6.089-8.181 6.661-7.224.573.947.662 4.595 2.772 5.945 2.11 1.35 3.943-3.46 5.284-3.844 1.35-.385 2.208.098 3.174 1.734 2.11 3.577-1.046 17.229 4.917 15.343 1.914-.608 4.855-6.849 3.452-16.585-.349-2.388.581-7.117 1.251-7.117.671 0 1.154 3.656 3.076 3.174 1.922-.483 2.888-4.614 4.81-4.229 1.922.384 5.534 2.843 7.019-2.978.59-2.297 3.943-1.35 4.711-.286.769 1.055 4.766.966 5.195-2.691.429-3.657 0-15.092 0-15.092l-58.652 16.013z" fill="#EDB82C"/><path d="M189.676 178.145c25.938 0 46.966-7.429 46.966-16.594 0-9.165-21.028-16.594-46.966-16.594-25.939 0-46.966 7.429-46.966 16.594 0 9.165 21.027 16.594 46.966 16.594z" fill="#EDB82C"/><path d="M189.69 178.088c22.065 0 40.577-5.377 45.613-12.624" stroke="#fff" stroke-width="2.229" stroke-linecap="round"/><mask id="b" style="mask-type:alpha" maskUnits="userSpaceOnUse" x="142" y="161" width="95" height="89"><path d="M142.723 233.036v-71.562h93.933v71.562c0 9.165-21.029 16.594-46.966 16.594-4.122 0-8.11-.187-11.919-.536l-.187-16.058h-34.861z" fill="#C4C4C4"/></mask><g mask="url(#b)" fill="#EDB82C"><path d="M238.957 216.743c0 9.611-22.066 17.407-49.273 17.407-27.216 0-49.282-7.796-49.282-17.407 0-1.154.313-2.28.921-3.371 4.453 7.993 24.417 14.028 48.361 14.028 23.934 0 43.899-6.035 48.352-14.028.599 1.091.921 2.217.921 3.371z"/><path d="M238.957 196.688c0 2.361-1.323 4.605-3.737 6.661-1.404 1.198-3.183 2.325-5.267 3.38-8.932 4.461-23.63 7.376-40.269 7.376s-31.356-2.915-40.278-7.376c-2.084-1.055-3.863-2.182-5.267-3.38-2.414-2.056-3.737-4.3-3.737-6.661 0-1.01.25-2.011.715-2.977 1.181 2.432 3.791 4.685 7.502 6.67h.009c2.342 1.252 5.15 2.378 8.297 3.371 8.708 2.744 20.179 4.407 32.759 4.407 12.562 0 24.033-1.663 32.741-4.407 3.156-.993 5.955-2.119 8.297-3.371h.009c3.711-1.985 6.321-4.238 7.502-6.67.473.966.724 1.967.724 2.977z"/></g><mask id="c" style="mask-type:alpha" maskUnits="userSpaceOnUse" x="142" y="161" width="48" height="89"><path d="M142.724 161.705h47.258l-12.181 16.039v71.436l-35.077-.384v-87.091z" fill="#FC9AEA"/></mask><g mask="url(#c)"><path d="M142.724 161.551h47.258l-12.181 16.04v71.83h-35.077v-87.87z" fill="#EDB82C"/><path d="M184.602 168.632s-2.924-1.18-3.976-.831c-1.044.348-2.169.894-2.834.831-.657-.053-3.446-1.225-4.499-.903-1.043.322-4.966 1.225-5.667.903-.702-.322-4.013-1.341-4.966-.956-.963.384-3.23 1.502-4.094 1.028-.863-.474-4.534-1.735-4.885-.501s0 4.792 0 5.57c0 .778-1.007.447-1.295 3.451-.288 3.004 1.151 3.434.719 5.15-.431 1.717-1.088 7.153-.755 9.013.324 1.859-.216 4.148-.09 7.152.126 3.004-.882 3.979-.018 6.849.863 2.879-.279 5.311-.351 7.743-.072 2.432.648 3.004.936 6.294.287 3.29-1.152 5.15-.936 6.294.216 1.145-.261 4.721-.018 6.581.243 1.86.198 3.147-.072 5.436s0 5.159 0 5.159l.09 6.208h30.07l2.641-80.471z" fill="#FDF0B9"/><path d="M184.233 180.148s-6.387-.161-9.284 1.413c-2.897 1.573-4.561-2.727-8.079-.984-3.527 1.735-5.182 3.8-4.04 8.226 1.143 4.425 2.178 4.533 1.143 7.93-1.035 3.398-3.832 4.22-2.483 8.136 1.349 3.916-1.349 7.314.108 11.221 1.448 3.916.513 3.245.72 5.713.207 2.468 2.564 2.137 1.736 8.619-.819 6.464-3.311 2.96-2.474 7.385.828 4.426 1.988 4.739 1.781 6.59-.207 1.85-.827 4.837-.827 4.837h23.363l-1.664-69.086z" fill="#F0C7A9"/></g><path d="M145.793 161.167h45.272l-5.294 6.139" stroke="#fff" stroke-width="2.229" stroke-linecap="round" stroke-linejoin="round"/><path d="M171.053 229.083H89.79c-.725 4.443 0 17.059 0 17.059 0 7.09 18.194 12.839 40.627 12.839 22.441 0 40.627-5.749 40.627-12.839.572-10.059.009-17.059.009-17.059z" fill="#EDB82C"/><path d="M170.051 227.008c3.854-.206 7.01 3.854 5.704 6.33-1.305 2.477-6.106 4.328-7.689 4.793-3.603 1.063-.992 6.616-7.805 4.98-3.523-.85-4.551 1.528-6.5 3.442-1.949 1.913-7.153.572-12.034-1.529-4.882-2.101-9.102 3.827-13.823 3.254-4.721-.572-8.941-2.87-12.034-1.725-3.094 1.144-4.873 0-8.619-3.639-3.746-3.639-7.475 1.341-10.89 0-3.415-1.341-2.11-4.596-5.856-6.312-3.746-1.717-7.475-2.361-7.475-4.498 0-4.846 7.412-6.053 7.412-6.053l79.609.957z" fill="#E06738"/><path d="M171.053 221.483c0 14.886-18.195 18.132-40.627 18.132-22.433 0-40.627-3.246-40.627-18.132 0-14.887 18.194-26.957 40.627-26.957 22.432 0 40.627 12.07 40.627 26.957z" fill="#EDB82C"/><path d="M110.202 202.993c.696 0 1.261-.284 1.261-.635 0-.35-.565-.634-1.261-.634s-1.261.284-1.261.634c0 .351.565.635 1.261.635zm7.984 4.882c.696 0 1.26-.285 1.26-.635 0-.351-.564-.635-1.26-.635-.696 0-1.261.284-1.261.635 0 .35.565.635 1.261.635zm5.248-4.882c.697 0 1.261-.284 1.261-.635 0-.35-.564-.634-1.261-.634-.696 0-1.26.284-1.26.634 0 .351.564.635 1.26.635zm8.834-4.524c.696 0 1.26-.284 1.26-.635 0-.35-.564-.635-1.26-.635-.697 0-1.261.285-1.261.635 0 .351.564.635 1.261.635zm6.866 6.401c.697 0 1.261-.284 1.261-.634 0-.351-.564-.635-1.261-.635-.696 0-1.26.284-1.26.635 0 .35.564.634 1.26.634zm13.581 0c.697 0 1.261-.284 1.261-.634 0-.351-.564-.635-1.261-.635-.696 0-1.26.284-1.26.635 0 .35.564.634 1.26.634zm-48.37 8.798c.697 0 1.261-.284 1.261-.635 0-.35-.564-.634-1.261-.634-.696 0-1.26.284-1.26.634 0 .351.564.635 1.26.635zm14.923 5.937c.696 0 1.261-.284 1.261-.635 0-.35-.565-.635-1.261-.635s-1.261.285-1.261.635c0 .351.565.635 1.261.635zm11.739-8.386c.697 0 1.261-.284 1.261-.635 0-.35-.564-.635-1.261-.635-.696 0-1.26.285-1.26.635 0 .351.564.635 1.26.635zm8.127 6.482c.697 0 1.261-.284 1.261-.635 0-.351-.564-.635-1.261-.635-.696 0-1.26.284-1.26.635 0 .351.564.635 1.26.635zm12.544-2.549c.697 0 1.261-.284 1.261-.634 0-.351-.564-.635-1.261-.635-.696 0-1.26.284-1.26.635 0 .35.564.634 1.26.634z" fill="#fff"/><path d="M141.978 196.531c6.367.86 10.325 3.269 10.325 3.269" stroke="#fff" stroke-width="2" stroke-linecap="round"/><path d="M101.828 26.716c11.086-5.075 18.277-13.112 16.061-17.952-2.215-4.84-12.998-4.65-24.084.424-11.086 5.074-18.276 13.11-16.06 17.951 2.215 4.84 12.997 4.65 24.083-.423z" fill="#0E7F3D"/><path d="M100.676 24.188c5.923-2.71 9.764-7.005 8.58-9.59-1.183-2.587-6.944-2.486-12.866.224-5.923 2.711-9.764 7.005-8.58 9.591 1.183 2.587 6.944 2.486 12.866-.225z" fill="#000"/><path d="M109.257 14.595l-21.455 9.82 5.076 11.09 21.455-9.82-5.076-11.09z" fill="#000"/><path d="M225.905 65.883L44.048 145.135a101.156 101.156 0 01-2.61-22.889c0-55.692 45.16-100.843 100.843-100.843 34.825 0 65.518 17.649 83.624 44.48z" fill="#32B768"/><path d="M25.166 161.622c-.957-1.69-4.659-1.529-9.21.134a2.222 2.222 0 01-2.476-.689c-3.04-3.782-6.125-5.829-7.814-4.882-1.69.957-1.53 4.659.134 9.21a2.219 2.219 0 01-.689 2.476c-3.773 3.04-5.83 6.125-4.881 7.814.956 1.69 4.658 1.529 9.209-.134a2.22 2.22 0 012.476.689c3.04 3.773 6.125 5.829 7.815 4.881 1.69-.956 1.528-4.658-.135-9.209a2.219 2.219 0 01.689-2.476c3.782-3.04 5.838-6.116 4.882-7.814z" fill="#EDB82C"/><path d="M275.616 86.84c.482-1.877-2.298-4.327-6.733-6.294a2.203 2.203 0 01-1.305-2.208c.429-4.828-.376-8.45-2.253-8.932-1.878-.483-4.328 2.298-6.295 6.732a2.203 2.203 0 01-2.208 1.306c-4.828-.43-8.449.375-8.932 2.253-.483 1.877 2.298 4.327 6.733 6.294a2.205 2.205 0 011.305 2.209c-.429 4.828.375 8.449 2.253 8.931 1.878.483 4.327-2.297 6.294-6.732a2.205 2.205 0 012.209-1.305c4.828.429 8.449-.376 8.932-2.253z" fill="#E06738"/><path d="M267.98 212.844c5.615 0 10.166-4.552 10.166-10.166 0-5.615-4.551-10.166-10.166-10.166-5.614 0-10.165 4.551-10.165 10.166 0 5.614 4.551 10.166 10.165 10.166z" fill="#32B768"/></svg>