<svg width="300" height="179" fill="none" xmlns="http://www.w3.org/2000/svg"><path d="M46.934 160.559S4.346 142.599.236 94.879c-4.109-47.72 46.698-50.286 46.698-50.286s36.981-.41 69.274-6.668 68.721-29.76 68.721-29.76 60.588-29.447 89.84 23.502c29.251 52.949-1.381 112.26-34.625 123.532-27.383 9.287-97.269 33.329-193.21 5.36z" fill="#B3FFD1"/><path d="M260.774 155.291l-35.887-87.02a16.993 16.993 0 00-15.707-10.517H87.816a16.992 16.992 0 00-15.707 10.517l-35.887 87.02c-4.61 11.188 3.607 23.469 15.706 23.469h193.139c12.1 0 20.324-12.288 15.707-23.469z" fill="#0E7F3D"/><path d="M260.774 150.055l-35.887-87.02A16.993 16.993 0 00209.18 52.52H87.816a16.992 16.992 0 00-15.707 10.517l-35.887 87.019c-4.61 11.188 3.607 23.47 15.706 23.47h193.139c12.1.006 20.324-12.282 15.707-23.47z" fill="#32B768"/><path d="M199.366 137.2c5.362 0 9.709-2.411 9.709-5.386 0-2.974-4.347-5.385-9.709-5.385-5.362 0-9.709 2.411-9.709 5.385 0 2.975 4.347 5.386 9.709 5.386z" fill="#0E7F3D"/><mask id="a" style="mask-type:alpha" maskUnits="userSpaceOnUse" x="34" y="52" width="229" height="122"><path d="M260.774 150.055l-35.887-87.02A16.993 16.993 0 00209.18 52.52H87.816a16.992 16.992 0 00-15.707 10.517l-35.887 87.019c-4.61 11.188 3.607 23.47 15.706 23.47h193.139c12.1.006 20.324-12.282 15.707-23.47z" fill="#7ABA60"/></mask><g mask="url(#a)"><path d="M256.138 129.211h-31.18a2.507 2.507 0 01-2.279-1.433c-2.832-6.069-11.923-10.4-23.007-10.4h-.208l-2.891-13.167a2.538 2.538 0 012.474-3.08h41.566c1.4 0 2.533-1.133 2.533-2.533v-.137c0-1.4-1.133-2.533-2.533-2.533h-43.825a2.53 2.53 0 01-2.475-1.993l-2.038-9.28a2.538 2.538 0 012.474-3.08h37.236c1.4 0 2.533-1.133 2.533-2.533v-.136c0-1.4-1.133-2.534-2.533-2.534h-39.489a2.53 2.53 0 01-2.474-1.992l-4.735-21.58a2.537 2.537 0 00-3.021-1.935l-.137.033a2.539 2.539 0 00-1.934 3.021l4.252 19.38a2.537 2.537 0 01-2.474 3.08h-55.906a2.534 2.534 0 01-2.481-3.048l4.155-20.096a2.53 2.53 0 00-1.967-2.995l-.136-.026a2.53 2.53 0 00-2.996 1.966l-4.591 22.18a2.537 2.537 0 01-2.481 2.025H94.751c-.026 0-.071 0-.11-.058-.04-.059-.026-.098-.013-.124l1.895-5.105a2.42 2.42 0 00.15-.677c.227-3.556-2.436-5.985-5.347-5.985H71.289a2.532 2.532 0 00-2.534 2.533v.137c0 1.4 1.134 2.533 2.534 2.533H91.3c.026.007.072 0 .11.059.04.058.027.097.014.123l-1.889 5.1a2.627 2.627 0 00-.156.676c-.235 3.55 2.416 5.992 5.366 5.992h18.683a2.534 2.534 0 012.481 3.047l-.443 2.136a2.537 2.537 0 01-2.481 2.025H63.259a2.532 2.532 0 00-2.533 2.533v.137c0 1.4 1.133 2.533 2.533 2.533h47.603a2.534 2.534 0 012.481 3.048l-6.238 30.15a2.537 2.537 0 01-2.481 2.026H42.988a2.532 2.532 0 00-2.534 2.533v.137c0 1.4 1.133 2.533 2.534 2.533H102.5a2.534 2.534 0 012.481 3.047l-7.56 36.539a2.53 2.53 0 001.966 2.996l.137.026a2.53 2.53 0 002.995-1.967l7.99-38.629a2.536 2.536 0 012.481-2.025h61.382c.977 0 1.869.553 2.28 1.432 2.832 6.07 11.923 10.4 23.006 10.4.222 0 .443-.007.665-.013l5.808 27.064a2.539 2.539 0 003.015 1.947l.137-.026a2.538 2.538 0 001.947-3.015l-5.118-23.834c-.293-1.355.56-2.709 1.914-3.002 7.111-1.557 12.549-5.06 14.626-9.501a2.529 2.529 0 012.286-1.452h31.179c1.4 0 2.533-1.133 2.533-2.533v-.137c.026-1.4-1.113-2.533-2.513-2.533zM123.932 81.569h60.294a2.53 2.53 0 012.475 1.993l2.038 9.28a2.538 2.538 0 01-2.475 3.08h-24.146c-5.809 0-10.511 4.708-10.511 10.51v20.239c0 1.4-1.133 2.533-2.533 2.533h-33.94a2.533 2.533 0 01-2.481-3.047l8.804-42.57a2.518 2.518 0 012.475-2.018zm50.448 47.642h-15.03a2.532 2.532 0 01-2.533-2.534v-20.239a5.302 5.302 0 015.301-5.301h26.399a2.53 2.53 0 012.475 1.993l2.637 12.028c.3 1.367-.566 2.735-1.94 3.021-7.307 1.511-12.907 5.067-15.023 9.586a2.522 2.522 0 01-2.286 1.446zm25.292 11.832c-8.856 0-18.722-3.79-18.722-9.228 0-5.437 9.866-9.227 18.722-9.227 8.857 0 18.722 3.79 18.722 9.227-.006 5.438-9.872 9.228-18.722 9.228z" fill="#fff"/></g><path opacity=".3" d="M148.495 103.24c30.754 0 55.684-11.549 55.684-25.794 0-14.246-24.93-25.794-55.684-25.794-30.753 0-55.684 11.548-55.684 25.794 0 14.245 24.931 25.794 55.684 25.794z" fill="#fff"/><path opacity=".35" d="M148.495 94.319c20.119 0 36.428-7.554 36.428-16.873 0-9.318-16.309-16.872-36.428-16.872-20.118 0-36.428 7.554-36.428 16.872 0 9.319 16.31 16.873 36.428 16.873z" fill="#fff"/><path opacity=".35" d="M148.495 86.836c11.192 0 20.265-4.204 20.265-9.39 0-5.186-9.073-9.39-20.265-9.39s-20.265 4.204-20.265 9.39c0 5.186 9.073 9.39 20.265 9.39z" fill="#fff"/><path d="M148.495 10.881c-14.229 0-25.761 11.533-25.761 25.768 0 5.627 2.396 10.856 4.864 15.062l14.274 24.043a7.84 7.84 0 006.623 3.868 7.839 7.839 0 006.623-3.868l14.274-24.043c2.468-4.206 4.865-9.435 4.865-15.062 0-14.235-11.533-25.768-25.762-25.768zm0 35.575c-5.633 0-10.204-4.571-10.204-10.21 0-5.634 4.571-10.205 10.204-10.205 5.633 0 10.204 4.572 10.204 10.204 0 5.64-4.571 10.211-10.204 10.211zm89.989 62.026h-30.105a1.656 1.656 0 01-1.654-1.654V82.226h33.413v24.602c0 .918-.743 1.654-1.654 1.654z" fill="#E06738"/><path d="M229.131 108.359h-11.364V97.697c0-.681.744-1.23 1.665-1.23h8.033c.922 0 1.666.549 1.666 1.23v10.662z" fill="#fff"/><path d="M238.345 76.385h-29.819l-5.958 8.85h41.742l-5.965-8.85zM205.8 90.549h-.521a2.72 2.72 0 01-2.722-2.722v-2.592h5.965v2.592a2.72 2.72 0 01-2.722 2.722z" fill="#EDB82C"/><path d="M211.843 90.549h-.521a2.8 2.8 0 01-2.8-2.8v-2.514h5.965v2.67a2.646 2.646 0 01-2.644 2.644zm2.644-14.164h-5.965v8.85h5.965v-8.85zm11.93 0h-5.965v8.85h5.965v-8.85zm11.923 0h-5.965v8.85h5.965v-8.85z" fill="#FDF0B9"/><path d="M217.73 90.549h-.521a2.72 2.72 0 01-2.722-2.722v-2.592h5.965v2.592a2.72 2.72 0 01-2.722 2.722z" fill="#EDB82C"/><path d="M223.688 90.549h-.521a2.72 2.72 0 01-2.722-2.722v-2.592h5.965v2.592a2.716 2.716 0 01-2.722 2.722z" fill="#FDF0B9"/><path d="M229.653 90.549h-.521a2.72 2.72 0 01-2.722-2.722v-2.592h5.965v2.592a2.72 2.72 0 01-2.722 2.722z" fill="#EDB82C"/><path d="M235.618 90.549h-.521a2.72 2.72 0 01-2.722-2.722v-2.592h5.965v2.592a2.72 2.72 0 01-2.722 2.722z" fill="#FDF0B9"/><path d="M241.583 90.549h-.521a2.72 2.72 0 01-2.722-2.722v-2.592h5.965v2.592a2.72 2.72 0 01-2.722 2.722z" fill="#EDB82C"/><path d="M79.148 119.159H55.751a1.643 1.643 0 01-1.641-1.641v-8.733c0-.905.736-1.641 1.64-1.641h23.398c.906 0 1.641.736 1.641 1.641v8.733a1.634 1.634 0 01-1.64 1.641z" fill="#E06738"/><path d="M79.207 117.186H55.699V92.108h23.508v25.078zm-21.555-1.954h19.601v-21.17h-19.6v21.17z" fill="#E06738"/><path d="M78.75 87.746H54.964l-4.76 8.08h33.302l-4.754-8.08z" fill="#EDB82C"/><path d="M59.723 87.745h-4.76v8.075h4.76v-8.075zm9.514 0h-4.76v8.075h4.76v-8.075zm9.513 0h-4.76v8.075h4.76v-8.075z" fill="#FDF0B9"/><path d="M81.128 100.678a2.378 2.378 0 01-2.377-2.377v-2.475h4.76v2.475a2.383 2.383 0 01-2.383 2.377z" fill="#EDB82C"/><path d="M76.368 100.678a2.378 2.378 0 01-2.377-2.377v-2.475h4.76v2.475a2.379 2.379 0 01-2.383 2.377z" fill="#FDF0B9"/><path d="M71.614 100.678a2.378 2.378 0 01-2.377-2.377v-2.475h4.76v2.475a2.383 2.383 0 01-2.383 2.377z" fill="#EDB82C"/><path d="M66.853 100.678a2.378 2.378 0 01-2.377-2.377v-2.475h4.76v2.475a2.379 2.379 0 01-2.383 2.377z" fill="#FDF0B9"/><path d="M62.1 100.678a2.378 2.378 0 01-2.377-2.377v-2.475h4.76v2.475a2.387 2.387 0 01-2.383 2.377z" fill="#EDB82C"/><path d="M57.34 100.678a2.378 2.378 0 01-2.377-2.377v-2.475h4.76v2.475a2.383 2.383 0 01-2.383 2.377z" fill="#FDF0B9"/><path d="M52.586 100.678a2.378 2.378 0 01-2.377-2.377v-2.475h4.76v2.475a2.387 2.387 0 01-2.383 2.377zm220.45-53.701l5.086 26.875c.261 1.374 2.052 1.739 2.833.58l6.584-9.781 11.331-3.27c1.341-.39 1.543-2.207.312-2.877l-24.023-13.07c-1.074-.586-2.35.345-2.123 1.543z" fill="#EDB82C"/><path d="M208.724 33.745a7.704 7.704 0 100-15.407 7.704 7.704 0 100 15.407z" fill="#32B768"/><path d="M12.973 139.394c6.337 0 11.475-5.137 11.475-11.474 0-6.337-5.138-11.474-11.475-11.474S1.5 121.583 1.5 127.92c0 6.337 5.137 11.474 11.474 11.474z" fill="#0E7F3D"/><path d="M77.384 18.284c-.28-1.107-2.397-1.588-5.236-1.354a1.298 1.298 0 01-1.296-.775c-1.14-2.611-2.565-4.252-3.666-3.972-1.107.28-1.589 2.396-1.354 5.235a1.298 1.298 0 01-.775 1.296c-2.612 1.14-4.253 2.566-3.973 3.667.28 1.107 2.397 1.588 5.236 1.354a1.298 1.298 0 011.296.775c1.14 2.611 2.566 4.252 3.666 3.972 1.1-.28 1.59-2.396 1.355-5.235a1.298 1.298 0 01.775-1.296c2.61-1.133 4.252-2.56 3.972-3.667z" fill="#EDB82C"/></svg>