<svg width="290" height="298" fill="none" xmlns="http://www.w3.org/2000/svg"><path d="M71.915 39.806C84.424 6.583 109.005.521 122.724.53c39.634.008 54.939 12.961 80.4 42.098C227 69.954 244.038 65.834 257.749 76.321c22.351 17.108 35.052 76.166-8.249 112.281-61.384 51.21-100.818 54.32-153.866 37.787-35.775-11.15-65.757-41.62-66.48-75.356-1.393-65.182 29.233-75.295 42.761-111.227z" fill="#B3FFD1"/><path d="M262.557 72.236l-.165-.061a2.871 2.871 0 01-1.682-3.685l12.892-34.494a2.87 2.87 0 013.685-1.681l.165.06a2.87 2.87 0 011.681 3.685l-12.891 34.495a2.863 2.863 0 01-3.685 1.68z" fill="#EDB82C"/><path d="M258.245 67.759l-.165-.052a2.866 2.866 0 01-1.96-3.546l10.844-37.795a2.868 2.868 0 013.546-1.96l.165.052a2.866 2.866 0 011.96 3.545L261.782 65.8a2.855 2.855 0 01-3.537 1.96z" fill="#EDB82C"/><path d="M256.433 78.09l-.165-.061a2.87 2.87 0 01-1.681-3.685l13.771-36.829a2.87 2.87 0 013.685-1.68l.165.06a2.871 2.871 0 011.682 3.685l-13.772 36.828a2.853 2.853 0 01-3.685 1.682zm-2.892-14.295l-.165-.052a2.867 2.867 0 01-1.96-3.545l10.845-37.796a2.867 2.867 0 013.545-1.96l.166.052a2.868 2.868 0 011.96 3.546l-10.845 37.795a2.86 2.86 0 01-3.546 1.96z" fill="#EDB82C"/><path d="M249.413 66.565l-.175-.026a2.868 2.868 0 01-2.351-3.301l6.533-38.771a2.868 2.868 0 013.301-2.352l.174.026a2.87 2.87 0 012.352 3.301l-6.533 38.772a2.868 2.868 0 01-3.301 2.351z" fill="#EDB82C"/><path d="M245.972 69.44l-.174-.017a2.862 2.862 0 01-2.579-3.119l3.737-39.146a2.862 2.862 0 013.119-2.578l.174.017a2.861 2.861 0 012.578 3.119l-3.737 39.146a2.861 2.861 0 01-3.118 2.578zm7.831-7.97l-.175-.027a2.868 2.868 0 01-2.351-3.3l6.533-38.772a2.868 2.868 0 013.301-2.352l.174.026a2.87 2.87 0 012.352 3.301l-6.533 38.772c-.27 1.568-1.742 2.622-3.301 2.352z" fill="#EDB82C"/><path d="M240.38 72.628l-.175-.017a2.862 2.862 0 01-2.578-3.119l3.737-39.146a2.861 2.861 0 013.118-2.578l.174.017a2.862 2.862 0 012.579 3.119l-3.737 39.146a2.862 2.862 0 01-3.118 2.578z" fill="#EDB82C"/><path d="M237.853 67.524l-.174-.01a2.864 2.864 0 01-2.744-2.978l1.577-39.285a2.864 2.864 0 012.979-2.744l.174.009a2.863 2.863 0 012.744 2.979l-1.576 39.285c-.07 1.576-1.403 2.813-2.98 2.744z" fill="#EDB82C"/><path d="M275.266 53.42c.192-1.158-.34-2.255-1.437-3.292a6.23 6.23 0 01-.14 1.969c-1.367 5.906-10.958 8.72-21.402 6.289-10.453-2.43-17.804-9.181-16.437-15.087.148-.627.392-1.22.714-1.777-1.385.453-2.317 1.193-2.648 2.29l-2.987 36.925c-.018.262 0 .514.043.758 0 .009-.009.018-.009.018-.461 1.994 5.915 5.174 14.242 7.108 6.263 1.454 11.838 1.785 14.425 1.019a.426.426 0 00.096-.035c.679-.218 1.141-.514 1.333-.897.218-.253.4-.532.522-.854l13.685-34.433zM45.314 90.835l-15.81 3.397-4.216.906-15.81 3.397 14.948 47.918c0 .035-.009.069 0 .104.357 1.647 6.681 1.681 14.129.079 7.447-1.603 13.205-4.234 12.848-5.871-.009-.035-.035-.061-.044-.096l-6.045-49.834z" fill="#E06738"/><path d="M45.606 79.197L27.27 83.134l-4.887 1.054-18.336 3.938 17.334 55.582c0 .035-.009.079 0 .122.41 1.908 7.744 1.951 16.385.087 8.641-1.864 15.313-4.904 14.904-6.811-.009-.035-.035-.07-.052-.105l-7.012-57.804z" fill="#FDF0B9"/><path d="M38.655 100.207l-.41.026a1.552 1.552 0 01-1.663-1.437l-1.02-13.737A1.552 1.552 0 0137 83.397l.409-.026a1.552 1.552 0 011.664 1.437l1.019 13.737a1.564 1.564 0 01-1.437 1.663z" fill="#000"/><path d="M26.116 89.692c12.817-2.753 22.556-8.016 21.753-11.756-.803-3.739-11.845-4.538-24.662-1.785C10.39 78.903.651 84.167 1.454 87.906c.803 3.74 11.845 4.539 24.662 1.786z" fill="#E06738"/><mask id="a" style="mask-type:alpha" maskUnits="userSpaceOnUse" x="8" y="86" width="42" height="57"><path d="M43.66 86.615l-15.296 3.308-4.076.885-15.295 3.308 14.46 46.694c0 .029-.008.066 0 .103.341 1.602 6.46 1.639 13.667.073 7.208-1.566 12.774-4.12 12.432-5.723-.007-.029-.029-.058-.043-.087l-5.85-48.56z" fill="#A03AB4"/></mask><g mask="url(#a)"><path d="M10.232 102.951s5.026-7.099 9.398-6.576c4.382.522 5.218 1.994 11.124.33 5.906-1.672 6.55-4.808 12.055-4.198 3.86.427 8.206 4.19 8.206 4.19l3.214 49.686-33.884 7.282-10.113-50.714z" fill="#EDB82C"/></g><path d="M36.747 53.631c.017.087.026.166.035.253l1.106 14.965.801 10.731A52.288 52.288 0 0135.266 81l-.897-12.16-1.08-14.703a1.75 1.75 0 011.62-1.882c.871-.06 1.655.54 1.838 1.376z" fill="#000"/><mask id="b" style="mask-type:alpha" maskUnits="userSpaceOnUse" x="29" y="0" width="250" height="236"><path d="M71.915 39.806C84.424 6.583 109.005.521 122.724.53c39.634.008 54.939 12.961 80.4 42.098C227 69.954 244.038 65.834 257.749 76.321c22.351 17.108 35.052 76.166-8.249 112.281-61.384 51.21-100.818 54.32-153.866 37.787-35.775-11.15-65.757-41.62-66.48-75.356-1.393-65.182 29.233-75.295 42.761-111.227z" fill="#FFF3F3"/></mask><g mask="url(#b)"><path d="M106.488 53.665h79.136c8.85 0 16.028 7.177 16.028 16.027v166.122c0 8.85-7.178 16.027-16.028 16.027h-79.136c-8.85 0-16.028-7.177-16.028-16.027V69.684c0-8.85 7.178-16.02 16.028-16.02z" fill="#000"/><path d="M108.448 60.86h75.208c5.958 0 10.792 4.834 10.792 10.792v162.193c0 5.958-4.834 10.793-10.792 10.793h-75.208c-5.958 0-10.793-4.835-10.793-10.793V71.652c0-5.967 4.835-10.792 10.793-10.792z" fill="#32B768"/><path d="M110.408 102.532h71.288a4.903 4.903 0 014.904 4.904v41.855a4.903 4.903 0 01-4.904 4.904h-71.288a4.904 4.904 0 01-4.905-4.904v-41.855a4.904 4.904 0 014.905-4.904zm0 58.858h71.288a4.903 4.903 0 014.904 4.904v16.35a4.903 4.903 0 01-4.904 4.904h-71.288a4.904 4.904 0 01-4.905-4.904v-16.35a4.904 4.904 0 014.905-4.904zm0 33.353h71.288a4.903 4.903 0 014.904 4.904v16.35a4.903 4.903 0 01-4.904 4.904h-71.288a4.904 4.904 0 01-4.905-4.904v-16.35a4.904 4.904 0 014.905-4.904z" fill="#fff"/><mask id="c" style="mask-type:alpha" maskUnits="userSpaceOnUse" x="97" y="60" width="98" height="185"><path d="M108.448 60.86h75.208c5.958 0 10.792 4.834 10.792 10.792v162.193c0 5.958-4.834 10.793-10.792 10.793h-75.208c-5.958 0-10.793-4.835-10.793-10.793V71.652c0-5.967 4.835-10.792 10.793-10.792z" fill="#fff"/></mask><g mask="url(#c)"><path d="M110.408 228.096h71.288A4.903 4.903 0 01186.6 233v16.35a4.903 4.903 0 01-4.904 4.904h-71.288a4.904 4.904 0 01-4.905-4.904V233a4.91 4.91 0 014.905-4.904z" fill="#32B768"/></g><path d="M173.011 107.819h-51.558c-.462 2.813 0 10.827 0 10.827 0 4.504 11.541 8.153 25.783 8.153s25.784-3.649 25.784-8.153c.339-6.385-.009-10.827-.009-10.827z" fill="#EDB82C"/><path d="M172.367 106.512c2.447-.13 4.442 2.448 3.623 4.016-.827 1.568-3.876 2.744-4.878 3.04-2.291.679-.636 4.199-4.947 3.153-2.23-.54-2.892.976-4.129 2.187-1.237 1.21-4.539.366-7.631-.976-3.092-1.333-5.775 2.43-8.772 2.065-2.987-.366-5.67-1.821-7.63-1.089-1.96.731-3.092 0-5.47-2.309-2.37-2.308-4.748.854-6.908 0-2.169-.853-1.341-2.918-3.711-4.007-2.369-1.088-4.747-1.498-4.747-2.857 0-3.075 4.704-3.841 4.704-3.841l50.496.618z" fill="#E06738"/><path d="M173.011 103.002c0 9.442-11.542 11.507-25.784 11.507-14.242 0-25.783-2.056-25.783-11.507s11.541-17.108 25.783-17.108 25.784 7.657 25.784 17.108z" fill="#EDB82C"/><path d="M164.701 73.219h-36.053c-.993 0-1.804-.81-1.804-1.803 0-.993.811-1.803 1.804-1.803h36.053c.993 0 1.803.81 1.803 1.803 0 .993-.81 1.803-1.803 1.803zm5.383 67.23h-46.828c-.993 0-1.803-.81-1.803-1.803 0-.993.81-1.803 1.803-1.803h46.837c.993 0 1.803.81 1.803 1.803 0 .993-.81 1.803-1.812 1.803zm-8.675 6.49h-29.477a1.808 1.808 0 01-1.804-1.804c0-.993.811-1.803 1.804-1.803h29.477a1.802 1.802 0 110 3.607zm-36.315 35.104H114.38a2.216 2.216 0 01-2.213-2.213v-10.714c0-1.219.993-2.212 2.213-2.212h10.714c1.219 0 2.212.993 2.212 2.212v10.714c0 1.22-.993 2.213-2.212 2.213z" fill="#0E7F3D"/><path d="M164.832 170.998h-31.89a1.19 1.19 0 01-1.193-1.194c0-.662.531-1.193 1.193-1.193h31.89c.662 0 1.193.531 1.193 1.193a1.19 1.19 0 01-1.193 1.194zm0 4.747h-31.89a1.19 1.19 0 01-1.193-1.194c0-.662.531-1.193 1.193-1.193h31.89c.662 0 1.193.531 1.193 1.193 0 .654-.531 1.194-1.193 1.194zm-4.652 4.59h-27.238a1.189 1.189 0 01-1.193-1.193c0-.662.531-1.193 1.193-1.193h27.238a1.19 1.19 0 011.194 1.193 1.19 1.19 0 01-1.194 1.193z" fill="#32B768"/><path d="M125.094 215.396H114.38a2.216 2.216 0 01-2.213-2.213v-10.714c0-1.219.993-2.212 2.213-2.212h10.714c1.219 0 2.212.993 2.212 2.212v10.714c0 1.22-.993 2.213-2.212 2.213z" fill="#0E7F3D"/><path d="M164.832 204.368h-31.89a1.189 1.189 0 01-1.193-1.193 1.19 1.19 0 011.193-1.194h31.89a1.19 1.19 0 011.193 1.194c0 .662-.531 1.193-1.193 1.193zm0 4.747h-31.89a1.189 1.189 0 01-1.193-1.193c0-.662.531-1.193 1.193-1.193h31.89c.662 0 1.193.531 1.193 1.193s-.531 1.193-1.193 1.193zm-4.652 4.556h-27.238a1.189 1.189 0 01-1.193-1.193 1.19 1.19 0 011.193-1.194h27.238a1.19 1.19 0 011.194 1.194 1.19 1.19 0 01-1.194 1.193z" fill="#32B768"/></g><path d="M265.432 225.823c-5.758-10.453-7.396-39.66-11.307-55.888-6.324-26.263-18.632-24.547-25.217-21.838-.227.096-2.762-4.111-8.842-4.111-7.169 0-7.108 3.362-9.233 3.737-1.594.278-4.887-1.15-9.451-.105-4.591 1.054-6.455 4.582-7.988 5.732l-5.662-21.124c-1.724-6.428-8.336-10.243-14.764-8.519-6.429 1.725-10.244 8.337-8.519 14.765l15.243 56.837-12.055-8.179c-5.505-3.737-13.005-2.308-16.742 3.205-3.737 5.506-2.308 13.005 3.205 16.742l33.423 22.692c7.552 5.357 17.352 12.891 20.958 18.24 6.185 9.172 15.383 47.429 15.383 47.429 46.507 11.098 58.431-19.912 58.431-19.912l-16.863-49.703z" fill="#F0C7A9"/><path d="M277.156 252.8l-6.019-18.754c-.923-2.875-3.641-4.739-6.576-4.504l-35.993 2.866a5.916 5.916 0 00-1.263.253l-.479-1.342-2.509 3.275c-.165.201-.331.401-.47.619l-.087.122.008.017a7.096 7.096 0 00-.627 1.22 6.64 6.64 0 00-.096 4.39l6.02 18.754c.923 2.874 3.641 4.739 6.576 4.503l35.993-2.865c4.102-.331 6.82-4.53 5.522-8.554z" fill="#0E7F3D"/><path d="M274.343 254.289l5.583 14.286s5.775-25.915-8.78-34.53l3.197 20.244z" fill="#000"/><path d="M271.337 258.253l-33.71 2.691c-2.753.218-5.305-1.655-6.185-4.529l-5.731-18.781c-1.228-4.033 1.289-8.214 5.148-8.519l33.71-2.691c2.753-.218 5.305 1.655 6.185 4.529l5.731 18.781c1.229 4.033-1.298 8.214-5.148 8.519z" fill="#32B768"/><path d="M229.047 259.716s-13.101 5.627-9.53 19.146c0 0-10.017 4.486-12.151-6.08-2.143-10.557-2.613-29.103 15.401-33.005l6.28 19.939z" fill="#000"/><path d="M191.704 146.573l7.762 26.341m12.064-24.721s6.942 10.444 8.022 23.101m9.495-22.7s6.943 10.444 8.023 23.101" stroke="#000" stroke-width="1.756" stroke-miterlimit="10" stroke-linecap="round"/><path d="M45.837 215.998c6.903 0 12.5-5.596 12.5-12.5 0-6.903-5.597-12.499-12.5-12.499-6.904 0-12.5 5.596-12.5 12.499 0 6.904 5.596 12.5 12.5 12.5z" fill="#0E7F3D"/><path d="M289.943 133.002c.453-1.586-1.846-3.72-5.557-5.488a1.867 1.867 0 01-1.054-1.908c.479-4.085-.113-7.168-1.699-7.621-1.585-.453-3.719 1.846-5.487 5.557a1.868 1.868 0 01-1.908 1.054c-4.085-.479-7.169.113-7.622 1.699-.453 1.585 1.847 3.719 5.558 5.487a1.87 1.87 0 011.054 1.908c-.48 4.085.113 7.169 1.698 7.622 1.585.453 3.72-1.847 5.488-5.558a1.868 1.868 0 011.907-1.054c4.077.479 7.161-.113 7.622-1.698z" fill="#32B768"/><path d="M104.624 9.31c-.349-1.611-3.389-2.404-7.5-2.195a1.853 1.853 0 01-1.83-1.176C93.77 2.115 91.784-.315 90.181.033c-1.611.349-2.404 3.389-2.195 7.5a1.853 1.853 0 01-1.176 1.83c-3.824 1.524-6.254 3.51-5.906 5.112.349 1.612 3.389 2.405 7.5 2.196a1.853 1.853 0 011.83 1.175c1.524 3.824 3.51 6.255 5.113 5.906 1.611-.348 2.404-3.388 2.195-7.5a1.853 1.853 0 011.176-1.829c3.824-1.515 6.254-3.502 5.906-5.113z" fill="#E06738"/></svg>