<svg width="20" height="21" fill="none" xmlns="http://www.w3.org/2000/svg"><path d="M12.857 10.5c-1.579 2-4.137 2-5.714 0" stroke="#374151" stroke-width="1.5" stroke-linecap="round" stroke-linejoin="round"/><path d="M8.438 3.475c.692-1.207 2.432-1.207 3.124 0l1.345 2.347a1.8 1.8 0 001.136.854l2.673.65a1.8 1.8 0 01.962 2.896l-1.885 2.28a1.8 1.8 0 00-.407 1.295l.242 2.92a1.8 1.8 0 01-2.526 1.793l-2.37-1.055a1.8 1.8 0 00-1.464 0l-2.37 1.055a1.8 1.8 0 01-2.526-1.793l.242-2.92a1.8 1.8 0 00-.407-1.295l-1.885-2.28a1.8 1.8 0 01.962-2.896l2.673-.65a1.8 1.8 0 001.136-.854l1.345-2.347z" stroke="#374151" stroke-width="1.5" stroke-linejoin="round"/></svg>